<svg width="48" height="49" viewBox="0 0 48 49" fill="none" xmlns="http://www.w3.org/2000/svg">
<path fill-rule="evenodd" clip-rule="evenodd" d="M9.0052 13.8055C9.39282 13.4179 9.91855 13.2001 10.4667 13.2001H37.5353C38.0835 13.2001 38.6092 13.4179 38.9968 13.8055C39.3844 14.1931 39.6022 14.7188 39.6022 15.267V34.6017C39.6022 35.1499 39.3844 35.6756 38.9968 36.0632C38.6092 36.4509 38.0835 36.6686 37.5353 36.6686H14.3337C13.8563 36.6686 13.3984 36.8583 13.0609 37.1958L8.3998 41.8569V15.267C8.3998 14.7188 8.61757 14.1931 9.0052 13.8055ZM10.4667 9.6001C8.96378 9.6001 7.52237 10.1971 6.45961 11.2599C5.39685 12.3227 4.7998 13.7641 4.7998 15.267V46.2025C4.7998 46.9305 5.23836 47.5869 5.91097 47.8655C6.58359 48.1441 7.3578 47.9901 7.8726 47.4753L15.0793 40.2686H37.5353C39.0382 40.2686 40.4797 39.6716 41.5424 38.6088C42.6052 37.5461 43.2022 36.1047 43.2022 34.6017V15.267C43.2022 13.7641 42.6052 12.3227 41.5424 11.2599C40.4797 10.1971 39.0382 9.6001 37.5353 9.6001H10.4667ZM13.7822 19.2001C12.7881 19.2001 11.9822 20.006 11.9822 21.0001C11.9822 21.9942 12.7881 22.8001 13.7822 22.8001H34.1998C35.1939 22.8001 35.9998 21.9942 35.9998 21.0001C35.9998 20.006 35.1939 19.2001 34.1998 19.2001H13.7822ZM13.7998 26.4014C12.8057 26.4014 11.9998 27.2072 11.9998 28.2014C11.9998 29.1955 12.8057 30.0014 13.7998 30.0014H27.0073C28.0014 30.0014 28.8073 29.1955 28.8073 28.2014C28.8073 27.2072 28.0014 26.4014 27.0073 26.4014L13.7998 26.4014Z" fill="white"/>
</svg>
