<svg width="22" height="22" viewBox="0 0 22 22" fill="none" xmlns="http://www.w3.org/2000/svg">
<path fill-rule="evenodd" clip-rule="evenodd" d="M8.85521 4.07572C8.99961 3.93132 9.19547 3.8502 9.39968 3.8502H12.5897C12.7939 3.8502 12.9898 3.93132 13.1342 4.07572C13.2786 4.22013 13.3597 4.41598 13.3597 4.6202V5.3902L8.62968 5.39019V4.6202C8.62968 4.41598 8.71081 4.22013 8.85521 4.07572ZM6.97968 5.39019V4.6202C6.97968 3.97837 7.23465 3.36283 7.68849 2.909C8.14232 2.45516 8.75786 2.2002 9.39968 2.2002H12.5897C13.2315 2.2002 13.847 2.45516 14.3009 2.909C14.7547 3.36283 15.0097 3.97837 15.0097 4.6202V5.3902L18.1722 5.39019C18.6278 5.39019 18.9972 5.75955 18.9972 6.21519C18.9972 6.67082 18.6278 7.04019 18.1722 7.04019H17.4022V17.3802C17.4022 18.022 17.1472 18.6376 16.6934 19.0914C16.2395 19.5452 15.624 19.8002 14.9822 19.8002H7.00718C6.36536 19.8002 5.74982 19.5452 5.29599 19.0914C4.84215 18.6376 4.58718 18.022 4.58718 17.3802V7.04019H3.81719C3.36155 7.04019 2.99219 6.67082 2.99219 6.21519C2.99219 5.75955 3.36155 5.39019 3.81719 5.39019H6.97968ZM6.23718 17.3802V7.04019H15.7522V17.3802C15.7522 17.5844 15.6711 17.7803 15.5267 17.9247C15.3823 18.0691 15.1864 18.1502 14.9822 18.1502H7.00718C6.80297 18.1502 6.60712 18.0691 6.46271 17.9247C6.31831 17.7803 6.23718 17.5844 6.23718 17.3802ZM9.3997 9.37772C9.85534 9.37772 10.2247 9.74709 10.2247 10.2027V14.9877C10.2247 15.4434 9.85534 15.8127 9.3997 15.8127C8.94407 15.8127 8.5747 15.4434 8.5747 14.9877V10.2027C8.5747 9.74709 8.94407 9.37772 9.3997 9.37772ZM13.4147 10.2027C13.4147 9.74709 13.0453 9.37772 12.5897 9.37772C12.134 9.37772 11.7647 9.74709 11.7647 10.2027V14.9877C11.7647 15.4434 12.134 15.8127 12.5897 15.8127C13.0453 15.8127 13.4147 15.4434 13.4147 14.9877V10.2027Z" fill="#818386"/>
</svg>
