<svg width="22" height="22" viewBox="0 0 22 22" fill="none" xmlns="http://www.w3.org/2000/svg">
<path fill-rule="evenodd" clip-rule="evenodd" d="M16.699 3.85019C16.5086 3.85019 16.32 3.8877 16.1441 3.96058C15.9681 4.03346 15.8083 4.14028 15.6736 4.27494L14.3832 5.56534L16.4341 7.61622L17.7245 6.32582C17.8591 6.19115 17.966 6.03129 18.0388 5.85534C18.1117 5.6794 18.1492 5.49082 18.1492 5.30038C18.1492 5.10994 18.1117 4.92136 18.0388 4.74542C17.966 4.56947 17.8591 4.40961 17.7245 4.27494C17.5898 4.14028 17.4299 4.03346 17.254 3.96058C17.078 3.8877 16.8895 3.85019 16.699 3.85019ZM15.2673 8.78294L13.2165 6.73207L4.96912 14.9794L4.20004 17.7994L7.01999 17.0303L15.2673 8.78294ZM15.5126 2.43618C15.8888 2.28038 16.2919 2.2002 16.699 2.2002C17.1062 2.2002 17.5093 2.28038 17.8854 2.43618C18.2616 2.59198 18.6033 2.82034 18.8912 3.10822C19.1791 3.3961 19.4074 3.73786 19.5632 4.11399C19.719 4.49012 19.7992 4.89326 19.7992 5.30038C19.7992 5.7075 19.719 6.11064 19.5632 6.48677C19.4074 6.8629 19.1791 7.20466 18.8912 7.49254L8.0318 18.3519C7.93028 18.4535 7.80402 18.5267 7.66551 18.5645L3.24131 19.7711C2.95568 19.849 2.65022 19.7679 2.44087 19.5585C2.23153 19.3492 2.15041 19.0437 2.22831 18.7581L3.43491 14.3339C3.47268 14.1954 3.54595 14.0691 3.64747 13.9676L14.5069 3.10822C14.7947 2.82034 15.1365 2.59198 15.5126 2.43618Z" fill="#818386"/>
</svg>
