<svg width="48" height="48" viewBox="0 0 48 48" fill="none" xmlns="http://www.w3.org/2000/svg">
<g opacity="0.7">
<path fill-rule="evenodd" clip-rule="evenodd" d="M39.5994 29.9999H29.9994L29.9994 39.5999H39.5994V29.9999ZM29.9994 26.3999H39.5994C41.5876 26.3999 43.1994 28.0117 43.1994 29.9999V39.5999C43.1994 41.5881 41.5876 43.1999 39.5994 43.1999H29.9994C28.0112 43.1999 26.3994 41.5881 26.3994 39.5999V29.9999C26.3994 28.0117 28.0112 26.3999 29.9994 26.3999Z" fill="white"/>
<path fill-rule="evenodd" clip-rule="evenodd" d="M17.9998 8.3998H8.3998L8.3998 17.9998H17.9998V8.3998ZM39.5998 8.3998H29.9998V17.9998H39.5998V8.3998ZM17.9998 29.9998H8.3998L8.3998 39.5998H17.9998V29.9998ZM17.9998 4.7998H8.3998C6.41158 4.7998 4.7998 6.41158 4.7998 8.3998V17.9998C4.7998 19.988 6.41158 21.5998 8.3998 21.5998H17.9998C19.988 21.5998 21.5998 19.988 21.5998 17.9998V8.3998C21.5998 6.41158 19.988 4.7998 17.9998 4.7998ZM39.5998 4.7998H29.9998C28.0116 4.7998 26.3998 6.41158 26.3998 8.3998V17.9998C26.3998 19.988 28.0116 21.5998 29.9998 21.5998H39.5998C41.588 21.5998 43.1998 19.988 43.1998 17.9998V8.3998C43.1998 6.41158 41.588 4.7998 39.5998 4.7998ZM8.3998 26.3998H17.9998C19.988 26.3998 21.5998 28.0116 21.5998 29.9998V39.5998C21.5998 41.588 19.988 43.1998 17.9998 43.1998H8.3998C6.41158 43.1998 4.7998 41.588 4.7998 39.5998V29.9998C4.7998 28.0116 6.41158 26.3998 8.3998 26.3998Z" fill="white"/>
</g>
</svg>
