<svg width="22" height="22" viewBox="0 0 22 22" fill="none" xmlns="http://www.w3.org/2000/svg">
<path fill-rule="evenodd" clip-rule="evenodd" d="M10.9992 2.2002C6.13906 2.2002 2.19922 6.14003 2.19922 11.0002C2.19922 15.8603 6.13906 19.8002 10.9992 19.8002C15.8585 19.8002 19.7992 15.8603 19.7992 10.9993C19.7992 6.14003 15.8585 2.2002 10.9992 2.2002ZM10.9992 17.9659C7.15197 17.9659 4.03256 14.8474 4.03256 10.9993C4.03256 7.15111 7.15106 4.03353 10.9992 4.03353C14.8465 4.03353 17.9668 7.15203 17.9668 11.0002C17.9668 14.8483 14.8465 17.9659 10.9992 17.9659ZM10.0826 9.16686C10.0826 10.0533 9.46747 10.771 8.70847 10.771C7.94856 10.771 7.33256 10.0533 7.33256 9.16686C7.33256 8.28045 7.94856 7.5627 8.70756 7.5627C9.46656 7.5627 10.0826 8.28045 10.0826 9.16686ZM13.2908 10.771C14.0508 10.771 14.6658 10.0533 14.6658 9.16686C14.6658 8.28045 14.0498 7.5627 13.2908 7.5627C12.5319 7.5627 11.9159 8.28136 11.9159 9.16686C11.9159 10.0524 12.5319 10.771 13.2908 10.771ZM14.0545 12.5182C14.2313 12.1854 14.6457 12.0544 14.9785 12.2249C15.314 12.3972 15.4496 12.8033 15.281 13.1397C15.2361 13.2304 14.1397 15.3534 11.0001 15.3534C7.86147 15.3534 6.76331 13.2313 6.71747 13.1406C6.54788 12.8005 6.68538 12.388 7.02456 12.2175C7.36556 12.0479 7.77256 12.1845 7.94488 12.5191C7.98338 12.5915 8.75338 13.9784 11.0001 13.9784C13.2578 13.9784 14.0233 12.5787 14.0545 12.5182Z" fill="#818386"/>
</svg>
